<?xml version="1.0" encoding="UTF-8"?><svg id="Layer_1" xmlns="http://www.w3.org/2000/svg" viewBox="0 0 668.98 211.59"><defs><style>.cls-1{fill:#fff;}</style></defs><path class="cls-1" d="M8.98,2.14h11.12c4.96,0,8.98,4.02,8.98,8.98V200.46c0,4.96-4.02,8.98-8.98,8.98H8.98c-4.96,0-8.98-4.02-8.98-8.98V11.12C0,6.16,4.02,2.14,8.98,2.14Zm14.54,179.65H124.19c4.96,0,8.98,4.02,8.98,8.98v9.7c0,4.96-4.02,8.98-8.98,8.98H14.54v-18.68c0-4.96,4.02-8.98,8.98-8.98Z"/><path class="cls-1" d="M192.05,202.1c-11.03-6.32-19.56-15.26-25.59-26.8-6.04-11.55-9.05-24.93-9.05-40.14v-58.74c0-15.21,3.02-28.59,9.05-40.14,6.04-11.55,14.57-20.48,25.59-26.8C203.08,3.16,215.81,0,230.26,0s27.18,3.16,38.21,9.48c11.03,6.32,19.56,15.26,25.59,26.8,6.04,11.55,9.05,24.93,9.05,40.14v58.74c0,15.21-3.02,28.59-9.05,40.14-6.04,11.55-14.57,20.48-25.59,26.8-11.03,6.32-23.76,9.48-38.21,9.48s-27.19-3.16-38.21-9.48Zm60.81-24.95c6.51-3.85,11.55-9.31,15.11-16.4,3.56-7.08,5.35-15.28,5.35-24.59v-60.74c0-9.31-1.78-17.51-5.35-24.59-3.56-7.08-8.6-12.55-15.11-16.4-6.51-3.85-14.04-5.77-22.6-5.77s-16.09,1.92-22.6,5.77c-6.51,3.85-11.55,9.32-15.11,16.4-3.56,7.08-5.35,15.28-5.35,24.59v60.74c0,9.32,1.78,17.51,5.35,24.59,3.56,7.08,8.6,12.55,15.11,16.4,6.51,3.85,14.04,5.77,22.6,5.77s16.09-1.92,22.6-5.77Z"/><path class="cls-1" d="M472.29,97.81c7.68,0,13.9,6.22,13.9,13.9v22.31c0,15.4-2.99,28.97-8.98,40.71-5.99,11.74-14.47,20.82-25.45,27.23s-23.69,9.62-38.14,9.62-27.5-3.02-38.57-9.05c-11.07-6.04-19.65-14.57-25.74-25.59-6.08-11.03-9.12-23.81-9.12-38.35v-61.17c0-15.4,2.99-28.94,8.98-40.63s14.47-20.75,25.45-27.16S398.31,0,412.76,0c11.88,0,22.83,2.54,32.86,7.63,10.03,5.09,18.42,12.29,25.17,21.6,2.83,3.91,5.28,8.08,7.35,12.52,4.31,9.25-2.37,19.85-12.57,19.85h-2.57c-5.49,0-10.57-3.14-12.78-8.17-1.58-3.57-3.56-6.82-5.94-9.73-4.09-4.99-8.89-8.79-14.4-11.41-5.51-2.61-11.22-3.92-17.11-3.92-8.55,0-16.06,2.04-22.53,6.13-6.46,4.09-11.46,9.82-14.97,17.18-3.52,7.37-5.28,15.95-5.28,25.74v61.17c0,8.94,1.8,16.75,5.42,23.45,3.61,6.7,8.72,11.91,15.33,15.61,6.61,3.71,14.23,5.56,22.88,5.56s16.06-1.92,22.53-5.77c6.46-3.85,11.45-9.43,14.97-16.75,3.52-7.32,5.28-16.02,5.28-26.09v-8.98h-28.16c-7.68,0-13.9-6.22-13.9-13.9h0c0-7.68,6.22-13.9,13.9-13.9h44.06Z"/><path class="cls-1" d="M557.91,202.1c-11.03-6.32-19.56-15.26-25.59-26.8-6.04-11.55-9.05-24.93-9.05-40.14v-58.74c0-15.21,3.02-28.59,9.05-40.14,6.04-11.55,14.57-20.48,25.59-26.8,11.03-6.32,23.76-9.48,38.21-9.48s27.18,3.16,38.21,9.48c11.03,6.32,19.56,15.26,25.59,26.8,6.04,11.55,9.05,24.93,9.05,40.14v58.74c0,15.21-3.02,28.59-9.05,40.14-6.04,11.55-14.57,20.48-25.59,26.8-11.03,6.32-23.76,9.48-38.21,9.48s-27.19-3.16-38.21-9.48Zm60.81-24.95c6.51-3.85,11.55-9.31,15.11-16.4,3.56-7.08,5.35-15.28,5.35-24.59v-60.74c0-9.31-1.78-17.51-5.35-24.59-3.56-7.08-8.6-12.55-15.11-16.4-6.51-3.85-14.04-5.77-22.6-5.77s-16.09,1.92-22.6,5.77c-6.51,3.85-11.55,9.32-15.11,16.4-3.56,7.08-5.35,15.28-5.35,24.59v60.74c0,9.32,1.78,17.51,5.35,24.59,3.56,7.08,8.6,12.55,15.11,16.4,6.51,3.85,14.04,5.77,22.6,5.77s16.09-1.92,22.6-5.77Z"/></svg>